<svg width="473" height="427" viewBox="0 0 473 427" fill="none" xmlns="http://www.w3.org/2000/svg">
<path fill-rule="evenodd" clip-rule="evenodd" d="M113.072 232.428C115.353 226.281 117.843 220.073 119.964 213.737C122.663 205.672 124.994 197.479 127.671 189.408C128.067 188.212 129.476 186.548 130.446 186.526C133.343 186.463 136.657 186.313 139.098 187.602C155.957 196.514 171.421 207.328 183.159 222.987C184.837 225.226 184.974 226.64 183.044 228.815C177.252 235.344 171.23 241.745 166.183 248.854C160.757 256.495 156.277 264.848 151.508 272.966C150.129 275.314 149.252 277.963 148.011 280.404C145.376 285.584 142.725 285.724 139.397 280.729C136.536 276.435 133.842 272.02 131.185 267.589C126.261 259.378 121.253 251.212 116.629 242.826C114.982 239.84 112.885 235.435 113.072 232.428Z" fill="white"/>
<path fill-rule="evenodd" clip-rule="evenodd" d="M192.428 264.98C191.863 264.536 190.999 264.202 189.829 263.98C188.389 263.707 186.493 264.592 185.543 265.591C180.466 270.933 172.726 280.198 169.056 289.01C168.153 291.177 167.383 293.827 168.35 294.774C169.264 295.67 171.13 295.549 172.803 295.509C173.136 294.281 173.533 293.074 173.992 291.896C176.896 279.212 184.644 268.649 192.428 264.98Z" fill="white"/>
<path fill-rule="evenodd" clip-rule="evenodd" d="M198.575 273.102C198.01 272.657 197.146 272.323 195.975 272.101C194.535 271.828 192.639 272.714 191.689 273.713C186.613 279.054 178.873 288.319 175.202 297.131C174.3 299.299 173.529 301.948 174.496 302.896C175.411 303.791 177.277 303.671 178.949 303.63C179.282 302.403 179.679 301.195 180.138 300.017C183.042 287.333 190.791 276.77 198.575 273.102Z" fill="white"/>
<path fill-rule="evenodd" clip-rule="evenodd" d="M205.326 280.782C204.761 280.338 203.897 280.004 202.726 279.782C201.286 279.509 199.39 280.394 198.44 281.393C193.364 286.735 185.624 296 181.953 304.812C181.051 306.979 180.28 309.629 181.247 310.576C182.162 311.472 184.028 311.351 185.701 311.311C186.033 310.083 186.43 308.876 186.889 307.698C189.793 295.014 197.542 284.45 205.326 280.782Z" fill="white"/>
<path fill-rule="evenodd" clip-rule="evenodd" d="M224.731 125.277C224.501 127.296 222.68 128.738 220.666 128.498C218.651 128.258 217.204 126.427 217.434 124.408C217.664 122.389 219.485 120.947 221.499 121.186C223.514 121.427 224.961 123.258 224.731 125.277Z" fill="white"/>
<path fill-rule="evenodd" clip-rule="evenodd" d="M226.677 114.241C226.446 116.26 224.625 117.702 222.611 117.462C220.596 117.222 219.149 115.39 219.38 113.371C219.61 111.352 221.43 109.91 223.444 110.15C225.459 110.39 226.907 112.222 226.677 114.241Z" fill="white"/>
<path fill-rule="evenodd" clip-rule="evenodd" d="M228.399 103.511C228.169 105.529 226.348 106.971 224.334 106.731C222.319 106.491 220.872 104.66 221.102 102.641C221.332 100.622 223.152 99.1797 225.167 99.4196C227.182 99.6598 228.629 101.491 228.399 103.511Z" fill="white"/>
<path fill-rule="evenodd" clip-rule="evenodd" d="M230.352 93.2411C230.122 95.2594 228.301 96.7018 226.287 96.4619C224.272 96.2215 222.825 94.3903 223.055 92.3711C223.286 90.3519 225.106 88.9099 227.12 89.1499C229.135 89.3902 230.583 91.2214 230.352 93.2411Z" fill="white"/>
<path fill-rule="evenodd" clip-rule="evenodd" d="M359.126 232.428C356.845 226.281 354.355 220.073 352.234 213.737C349.535 205.672 347.204 197.479 344.527 189.408C344.131 188.212 342.722 186.548 341.751 186.526C338.855 186.463 335.541 186.313 333.1 187.602C316.241 196.514 300.777 207.328 289.039 222.987C287.361 225.226 287.224 226.64 289.154 228.815C294.946 235.344 300.968 241.745 306.015 248.854C311.441 256.495 315.92 264.848 320.69 272.966C322.069 275.314 322.946 277.963 324.186 280.404C326.822 285.584 329.473 285.724 332.801 280.729C335.662 276.435 338.356 272.02 341.013 267.589C345.937 259.378 350.944 251.212 355.569 242.826C357.216 239.84 359.312 235.435 359.126 232.428Z" fill="white"/>
<path fill-rule="evenodd" clip-rule="evenodd" d="M279.76 264.98C280.326 264.536 281.19 264.202 282.361 263.98C283.8 263.707 285.696 264.592 286.647 265.591C291.723 270.933 299.463 280.198 303.133 289.01C304.036 291.177 304.807 293.827 303.839 294.774C302.925 295.67 301.059 295.549 299.386 295.509C299.053 294.281 298.656 293.074 298.198 291.896C295.294 279.212 287.545 268.649 279.76 264.98Z" fill="white"/>
<path fill-rule="evenodd" clip-rule="evenodd" d="M273.616 273.102C274.181 272.657 275.046 272.323 276.216 272.101C277.655 271.828 279.552 272.714 280.502 273.713C285.579 279.054 293.319 288.319 296.989 297.131C297.891 299.299 298.663 301.948 297.694 302.896C296.781 303.791 294.914 303.671 293.242 303.63C292.909 302.403 292.512 301.195 292.054 300.017C289.149 287.333 281.4 276.77 273.616 273.102Z" fill="white"/>
<path fill-rule="evenodd" clip-rule="evenodd" d="M266.868 280.782C267.433 280.338 268.298 280.004 269.468 279.782C270.907 279.509 272.804 280.394 273.754 281.393C278.83 286.735 286.571 296 290.241 304.812C291.143 306.979 291.915 309.629 290.946 310.576C290.033 311.472 288.166 311.351 286.494 311.311C286.162 310.083 285.764 308.876 285.306 307.698C282.401 295.014 274.652 284.45 266.868 280.782Z" fill="white"/>
<path fill-rule="evenodd" clip-rule="evenodd" d="M247.47 125.277C247.7 127.296 249.521 128.738 251.535 128.498C253.55 128.258 254.998 126.427 254.768 124.408C254.538 122.389 252.717 120.947 250.702 121.186C248.688 121.427 247.24 123.258 247.47 125.277Z" fill="white"/>
<path fill-rule="evenodd" clip-rule="evenodd" d="M245.519 114.241C245.75 116.26 247.57 117.702 249.584 117.462C251.599 117.222 253.046 115.39 252.816 113.371C252.586 111.352 250.765 109.91 248.751 110.15C246.736 110.39 245.289 112.222 245.519 114.241Z" fill="white"/>
<path fill-rule="evenodd" clip-rule="evenodd" d="M243.794 103.511C244.024 105.529 245.845 106.971 247.859 106.731C249.874 106.491 251.322 104.66 251.092 102.641C250.862 100.622 249.041 99.1797 247.026 99.4196C245.012 99.6598 243.564 101.491 243.794 103.511Z" fill="white"/>
<path fill-rule="evenodd" clip-rule="evenodd" d="M241.846 93.2411C242.076 95.2594 243.897 96.7018 245.911 96.4619C247.926 96.2215 249.373 94.3903 249.143 92.3711C248.913 90.3519 247.092 88.9099 245.078 89.1499C243.063 89.3902 241.616 91.2214 241.846 93.2411Z" fill="white"/>
<path d="M228.127 353.756C232.853 353.464 244.424 352.485 246.151 352.317C239.085 352.031 195.183 350.95 180.801 348.807C177.541 348.462 157.798 346.099 149.64 344.483C141.901 342.951 131.119 340.292 126.932 338.547C121.789 336.813 104.922 327.312 86.5438 313.41C63.7384 296.159 50.3182 281.022 49.7244 271.88C48.6471 255.306 48.9965 248.198 53.8648 239.238C61.3867 225.396 73.9483 209.655 74.1933 208.686C75.6142 203.073 75.8552 197.319 76.089 191.755C76.176 189.683 79.5756 168.332 79.8476 164.964C86.3445 159.495 90.6644 154.171 97.0369 151.398C103.114 148.754 89.4065 151.891 77.9355 162.03C77.9355 162.03 58.1632 159.572 48.8725 158.32C64.6856 148.166 85.6907 144.972 102.795 139.384C100.27 138.742 92.1791 139.662 89.8315 140.15C83.2568 141.515 79.3089 142.616 72.8047 144.313C66.2883 146.013 59.5639 147.274 53.4025 149.89C47.51 152.392 42.1957 156.302 35.4574 156.303C35.3026 156.303 37.6606 161.564 39.8735 162.299C39.8832 168.727 41.1491 175.885 42.1982 181.78C42.8882 185.653 44.3484 189.435 45.7606 193.093C48.5709 200.373 51.2119 207.265 47.6241 214.151C47.614 214.167 47.6018 214.179 47.5914 214.195C46.6848 215.701 37.5547 235.433 26.8438 250.188C6.23397 272.911 21.6086 297.202 23.1599 299.992C43.9526 337.397 102.181 347.85 113.062 349.238C130.207 351.424 176.131 354.852 190.955 354.481C194.744 354.387 224.682 354.069 228.127 353.756ZM110.954 344.758C92.176 341.928 44.5271 327.876 27.5942 297.416C25.6572 293.932 15.7175 275.986 25.6265 258.898C25.8326 258.894 32.9293 249.193 32.9293 249.193C39.0151 238.806 51.9038 217.547 52.4111 216.07C56.7111 207.266 53.4259 198.746 50.5049 191.179C49.1224 187.598 45.1459 169.151 44.9948 163.475C47.9514 164.606 51.3656 164.643 54.5038 164.619C61.408 164.568 67.7992 165.149 74.5114 166.762C74.1613 169.307 71.0812 189.421 70.993 191.531C70.7899 196.377 69.3545 205.87 69.2486 206.151C67.8442 209.878 63.0448 216.909 62.957 217.207C60.124 221.306 51.727 233.155 51.674 233.266C47.3441 242.326 41.4497 253.174 44.6346 272.225C46.0921 280.945 53.8835 292.77 70.4196 307.053C86.2293 320.71 104.251 333.537 116.471 339.311C137.105 347.881 158.525 349.276 165.535 350.611C169.773 351.419 117.983 346.004 110.954 344.758Z" fill="white"/>
<path d="M281.823 354.481C296.647 354.852 342.571 351.424 359.716 349.238C370.597 347.85 428.825 337.397 449.618 299.992C451.169 297.202 466.545 272.911 445.934 250.188C435.223 235.433 426.093 215.701 425.186 214.195C425.176 214.179 425.164 214.167 425.154 214.151C421.566 207.265 424.207 200.373 427.017 193.093C428.43 189.435 429.89 185.653 430.58 181.78C431.629 175.885 432.895 168.727 432.904 162.299C435.118 161.564 437.476 156.303 437.32 156.303C430.582 156.302 425.269 152.392 419.375 149.89C413.214 147.274 406.489 146.013 399.974 144.313C393.469 142.616 389.522 141.515 382.946 140.15C380.599 139.662 372.508 138.742 369.983 139.384C387.087 144.972 408.092 148.166 423.905 158.32C414.615 159.572 394.843 162.03 394.843 162.03C383.372 151.891 369.664 148.754 375.741 151.398C382.113 154.171 386.433 159.495 392.931 164.964C393.202 168.332 396.601 189.683 396.689 191.755C396.923 197.319 397.164 203.073 398.585 208.686C398.83 209.655 411.391 225.396 418.913 239.238C423.782 248.198 424.131 255.306 423.054 271.88C422.46 281.022 409.039 296.159 386.234 313.41C367.856 327.312 350.988 336.813 345.846 338.547C341.659 340.292 330.877 342.951 323.138 344.483C314.979 346.099 295.237 348.462 291.977 348.807C277.595 350.95 233.693 352.031 226.626 352.317C228.354 352.485 239.925 353.464 244.651 353.756C248.097 354.069 278.034 354.387 281.823 354.481ZM307.243 350.611C314.253 349.276 335.672 347.881 356.307 339.311C368.527 333.537 386.549 320.71 402.358 307.053C418.894 292.77 426.686 280.945 428.143 272.225C431.328 253.174 425.434 242.326 421.104 233.266C421.052 233.155 412.653 221.306 409.821 217.207C409.733 216.909 404.934 209.878 403.529 206.151C403.423 205.87 401.988 196.377 401.785 191.531C401.697 189.421 398.617 169.307 398.266 166.762C404.978 165.149 411.37 164.568 418.274 164.619C421.412 164.643 424.827 164.606 427.783 163.475C427.632 169.151 423.656 187.598 422.273 191.179C419.352 198.746 416.067 207.266 420.367 216.07C420.874 217.547 433.763 238.806 439.848 249.193C439.848 249.193 446.945 258.894 447.152 258.898C457.061 275.986 447.12 293.932 445.184 297.416C428.251 327.876 380.602 341.928 361.825 344.758C354.794 346.004 303.005 351.419 307.243 350.611Z" fill="white"/>
<path d="M231.952 136.43C237.005 137.238 238.906 136.43 240.622 136.43H231.952Z" fill="white"/>
<path d="M364.986 206.795C364.007 202.998 364.379 199.776 367.307 197.192C372.554 192.562 373.972 186.625 373.536 179.85C372.99 171.334 372.646 162.804 372.19 153.792C372.385 153.863 372.578 153.934 372.774 154.005C372.482 152.784 372.232 151.555 372.014 150.319C371.053 149.202 370.321 147.482 369.876 146.076C366.656 135.909 363.804 125.617 360.494 115.484C359.862 113.55 357.732 112.133 356.307 110.465C354.814 108.715 353.609 105.846 351.806 105.38C343.836 103.325 344.204 96.5306 343.067 90.5919C342.349 86.8405 341.91 83.0196 341.593 79.2077C341.474 77.7662 341.56 75.8072 342.396 74.8699C345.667 71.2018 345.436 67.2388 344.438 62.8423C342.917 56.1324 341.741 49.3414 340.389 42.5914C339.575 38.5293 337.739 35.6838 333.812 33.4853C330.201 31.4635 327.338 28.1572 323.939 25.5626C317.27 20.4717 309.808 15.2947 302.791 10.7088C296.954 7.79101 295.634 9.85007 292.283 12.698C288.743 15.707 284.797 11.8966 280.682 10.4764C268.791 6.3745 258.664 2.85246 246.486 0.760925C240.575 -0.253642 231.834 -0.253642 225.715 0.760925C213.525 2.78317 203.409 6.3745 191.518 10.4764C187.404 11.8966 183.458 15.707 179.918 12.698C176.567 9.85007 175.247 7.79101 169.409 10.7088C162.393 15.2947 154.931 20.4717 148.262 25.5626C144.862 28.1572 142 31.4635 138.389 33.4853C134.461 35.6838 132.626 38.5293 131.812 42.5914C130.459 49.3414 129.284 56.1324 127.762 62.8423C126.765 67.2388 126.533 71.2018 129.804 74.8699C130.64 75.8072 130.727 77.7662 130.607 79.2077C130.291 83.0196 129.852 86.8405 129.134 90.5919C127.997 96.5306 128.365 103.325 120.394 105.38C118.591 105.846 117.387 108.715 115.893 110.465C114.469 112.133 112.338 113.55 111.707 115.484C108.396 125.617 105.545 135.909 102.325 146.076C101.879 147.482 101.148 149.202 100.186 150.319C99.9689 151.555 99.7195 152.784 99.4265 154.005C99.6218 153.934 99.815 153.863 100.011 153.792C99.5547 162.804 99.2111 171.334 98.6641 179.85C98.2288 186.625 99.6471 192.562 104.894 197.192C107.822 199.776 108.194 202.998 107.215 206.795C105.04 215.224 102.989 223.695 101.232 232.224C99.7277 239.523 100.557 246.66 104.837 252.914C113.03 264.89 120.838 277.206 129.828 288.533C144.026 306.421 160.126 322.325 180.272 333.405C186.774 336.98 192.965 341.105 200.865 339.788C201.434 339.693 202.065 339.818 202.641 339.952C209.083 341.461 215.465 343.375 221.981 344.361C225.47 344.889 246.731 344.889 250.22 344.361C256.735 343.375 263.118 341.461 269.56 339.952C270.136 339.818 270.767 339.693 271.336 339.788C279.236 341.105 285.427 336.98 291.929 333.405C312.075 322.325 328.175 306.421 342.373 288.533C351.363 277.206 359.171 264.89 367.364 252.914C371.644 246.66 372.473 239.523 370.969 232.224C369.212 223.695 367.161 215.224 364.986 206.795ZM297.133 18.6018C298.64 15.7034 300.513 15.4591 303.42 16.6409C312.932 20.5068 320.174 27.1683 326.295 35.2958C326.884 36.0771 328.723 39.8819 328.48 40.6819C326.715 46.4778 324.697 50.6094 321.351 55.2872C313.19 66.7009 302.729 76.0607 290.831 83.3538C284.628 87.1555 281.382 92.4466 278.846 99.0833C275.398 108.11 271.001 116.758 267.011 125.569C265.86 127.784 265.463 125.887 265.399 125.145C264.917 121.847 264.48 118.542 263.946 115.253C261.102 97.7324 258.011 80.2498 255.478 62.6826C254.383 55.0888 254.903 55.0193 261.448 51.7823C262.39 51.3173 263.278 50.7351 264.184 50.1973C277.562 42.2745 289.672 32.959 297.133 18.6018ZM198.73 13.4933C209.247 9.54925 220.35 5.77115 231.813 5.00511C232.451 4.96229 239.749 4.96229 240.387 5.00511C251.851 5.77115 262.953 9.54925 273.471 13.4933C276.911 14.7828 283.85 18.2678 287.443 21.0518C283.566 28.8551 276.468 33.4115 269.793 38.1305C265.039 41.4914 259.462 43.6576 254.184 46.2103C252.895 46.8326 250.605 47.6341 249.209 47.8437C243.033 48.7718 245.42 54.0193 246.343 58.4051C248.007 66.3159 248.997 68.1084 250.239 76.0805C252.899 93.1554 254.993 110.322 257.417 127.437C257.804 130.164 256.962 131.423 254.319 131.763C249.753 132.349 245.216 133.166 240.648 133.717C240.26 133.764 239.874 133.822 239.498 133.895C239.257 133.921 239.015 133.949 238.767 133.98C237.45 134.148 235.813 134.347 232.866 133.927C232.439 133.837 231.997 133.771 231.553 133.717C226.985 133.166 222.447 132.349 217.882 131.763C215.239 131.423 214.397 130.164 214.783 127.437C217.207 110.322 219.302 93.1554 221.961 76.0805C223.204 68.1084 224.195 66.3159 225.858 58.4051C226.781 54.0193 229.168 48.7718 222.991 47.8437C221.596 47.6341 219.306 46.8326 218.017 46.2103C212.739 43.6576 207.162 41.4914 202.407 38.1305C195.733 33.4115 188.635 28.8551 184.758 21.0518C188.351 18.2678 195.29 14.7828 198.73 13.4933ZM145.905 35.2958C152.027 27.1683 159.269 20.5068 168.781 16.6409C171.688 15.4591 173.561 15.7034 175.068 18.6018C182.529 32.959 194.639 42.2745 208.016 50.1973C208.923 50.7351 209.81 51.3173 210.752 51.7823C217.298 55.0193 217.817 55.0888 216.722 62.6826C214.189 80.2498 211.098 97.7324 208.255 115.253C207.72 118.542 207.284 121.847 206.801 125.145C206.739 125.887 206.341 127.784 205.19 125.569C201.2 116.758 196.803 108.11 193.354 99.0833C190.819 92.4466 187.573 87.1555 181.37 83.3538C169.471 76.0607 159.011 66.7009 150.849 55.2872C147.504 50.6094 145.485 46.4778 143.721 40.6819C143.478 39.8819 145.317 36.0771 145.905 35.2958ZM139.102 49.9699C141.381 54.4213 142.56 57.5885 145.452 61.982C154.043 75.0358 163.99 82.3674 176.546 91.4776C179.333 93.5001 185.31 96.7856 187.404 102.516C190.079 108.827 191.844 115.551 194.642 121.796C197.095 127.271 199.317 133.721 205.85 135.358C214.262 137.464 222.876 138.789 231.459 140.05C231.493 140.055 231.533 140.055 231.569 140.057L231.563 140.097C233.392 140.388 234.867 140.485 236.076 140.485C237.506 140.485 238.564 140.35 239.393 140.244C239.902 140.179 240.304 140.128 240.625 140.128V140.058C240.664 140.055 240.705 140.055 240.741 140.05C249.325 138.789 257.939 137.464 266.351 135.358C272.883 133.721 275.105 127.271 277.559 121.796C280.357 115.551 282.122 108.827 284.797 102.516C286.891 96.7856 292.867 93.5001 295.655 91.4776C308.211 82.3674 318.158 75.0358 326.749 61.982C329.64 57.5885 330.82 54.4213 333.098 49.9699C335.075 58.5456 340.421 66.5186 333.549 75.0782C330.846 78.4451 328.513 82.1466 325.627 85.3323C309.882 102.715 293.984 119.952 278.238 137.333C276.227 139.554 274.277 142.12 273.214 144.893C271.157 150.258 267.259 152.146 262.127 152.726C256.337 153.38 250.562 154.158 244.78 154.885V154.843C244.622 154.879 244.459 154.912 244.295 154.945C242.974 155.11 241.652 155.269 240.328 155.427C235.467 155.725 230.134 155.203 228.024 154.959C222.042 154.21 216.065 153.403 210.074 152.726C204.942 152.146 201.044 150.258 198.987 144.893C197.924 142.12 195.974 139.554 193.962 137.333C178.217 119.952 162.319 102.715 146.574 85.3323C143.688 82.1466 141.355 78.4451 138.652 75.0782C131.78 66.5186 137.126 58.5456 139.102 49.9699ZM225.346 309.744C225.125 318.014 224.457 326.272 223.866 334.528C211.178 334.598 199.726 333.637 190.331 323.898C181.741 314.993 172.572 306.67 163.599 298.157C161.386 296.058 161.351 294.075 162.441 291.244C167.173 278.946 174.289 268.206 183.008 258.643C193.189 247.475 203.826 236.741 214.265 225.819C214.87 226.018 215.476 226.217 216.082 226.416C219.697 252.743 222.807 279.129 225.426 305.767C225.407 307.092 225.382 308.419 225.346 309.744ZM248.334 334.528C247.744 326.272 247.075 318.014 246.855 309.744C246.819 308.419 246.794 307.092 246.775 305.767C249.393 279.129 252.503 252.743 256.119 226.416C256.725 226.217 257.33 226.018 257.936 225.819C268.375 236.741 279.012 247.475 289.193 258.643C297.911 268.206 305.028 278.946 309.76 291.244C310.85 294.075 310.815 296.058 308.602 298.157C299.629 306.67 290.46 314.993 281.87 323.898C272.475 333.637 261.022 334.598 248.334 334.528ZM361.676 250.462C349.086 271.86 334.003 291.257 316.014 308.086C308.822 314.814 300.246 319.996 292.299 325.883C292.048 325.57 291.797 325.258 291.546 324.947C296.005 320.205 300.436 315.435 304.933 310.732C307.551 307.994 310.188 305.263 312.975 302.707C316.999 299.017 318.171 294.362 316.575 289.413C314.95 284.371 313.11 279.152 310.192 274.84C300.029 259.821 287.792 246.619 274.532 234.393C270.081 230.29 265.564 226.204 261.56 221.666C255.75 215.08 248.365 212.826 240.597 211.651C239.667 211.071 238.581 210.801 237.359 210.931C236.939 210.976 236.52 211.023 236.101 211.07C235.681 211.023 235.262 210.976 234.842 210.931C233.62 210.801 232.534 211.071 231.603 211.651C223.836 212.826 216.451 215.08 210.641 221.666C206.637 226.204 202.12 230.29 197.669 234.393C184.408 246.619 172.172 259.821 162.008 274.84C159.091 279.152 157.251 284.371 155.625 289.413C154.03 294.362 155.202 299.017 159.226 302.707C162.013 305.263 164.649 307.994 167.268 310.732C171.765 315.435 176.196 320.205 180.655 324.947C180.404 325.258 180.152 325.57 179.902 325.883C171.955 319.996 163.379 314.814 156.187 308.086C138.197 291.257 123.114 271.86 110.525 250.462C106.17 243.06 106.018 235.592 109.067 227.679C111.75 220.713 114.053 213.592 116.455 206.515C117.695 202.861 117.109 200.055 113.832 197.299C110.823 194.768 107.492 190.027 106.643 187.724C105.173 180.94 104.573 173.669 105.231 166.762C105.708 155.975 107.806 146.335 109.756 135.971C110.36 132.762 112.098 127.497 113.075 124.36C116.841 115.508 120.642 114.134 121.002 114.243C118.303 122.061 111.403 144.727 109.727 158.084C108.519 167.702 108.854 175.687 109.306 175.749C110.068 155.687 118.865 126.085 123.476 111.944C123.991 112.055 126.625 105.276 124.488 114.933C122.689 118.727 117.958 140.637 116.729 146.778C115.531 152.762 112.95 174.876 113.075 179.083C111.78 184.832 116.257 193.079 116.954 193.109C117.403 172.417 123.347 148.725 126.562 133.399C129.835 117.806 133.33 100.417 136.716 84.4482C137.941 85.1432 148.543 98.7229 152.913 103.726C153.457 104.348 153.17 104.547 152.852 105.308C147.331 118.521 142.694 132.187 133.879 143.723C132.564 145.443 131.289 147.746 131.227 149.819C131 157.317 131.178 164.837 131.446 172.338C131.594 176.462 134.018 176.003 137.872 174.714C139.597 174.137 142.18 175.608 143.631 176.472C154.981 183.232 166.34 190.013 177.272 197.441C180.043 199.324 181.318 203.539 183.225 206.718C185.277 210.139 186.814 214.026 189.418 216.917C191.62 219.362 194.442 218.726 197.251 216.202C202.375 211.6 207.73 207.094 213.566 203.537C220.074 199.571 227.347 196.939 234.023 193.228C234.692 192.857 235.417 192.337 236.101 191.736C236.783 192.337 237.508 192.857 238.178 193.228C244.854 196.939 252.127 199.571 258.635 203.537C264.471 207.094 269.826 211.6 274.95 216.202C277.759 218.726 280.581 219.362 282.783 216.917C285.387 214.026 286.923 210.139 288.976 206.718C290.883 203.539 292.157 199.324 294.929 197.441C305.861 190.013 317.219 183.232 328.569 176.472C330.021 175.608 332.604 174.137 334.329 174.714C338.183 176.003 340.607 176.462 340.754 172.338C341.022 164.837 341.201 157.317 340.974 149.819C340.912 147.746 339.637 145.443 338.322 143.723C329.507 132.187 324.869 118.521 319.349 105.308C319.031 104.547 318.745 104.348 319.288 103.726C323.658 98.7229 334.26 85.1432 335.485 84.4482C338.871 100.417 342.366 117.806 345.639 133.399C348.854 148.725 354.797 172.417 355.247 193.109C355.944 193.079 360.42 184.832 359.125 179.083C359.251 174.876 356.67 152.762 355.472 146.778C354.243 140.637 349.512 118.727 347.712 114.933C345.576 105.276 348.209 112.055 348.724 111.944C353.335 126.085 362.134 155.687 362.894 175.749C363.347 175.687 363.682 167.702 362.474 158.084C360.798 144.727 353.898 122.061 351.198 114.243C351.559 114.134 355.359 115.508 359.125 124.36C360.102 127.497 361.84 132.762 362.445 135.971C364.395 146.335 366.493 155.975 366.969 166.762C367.629 173.669 367.027 180.94 365.558 187.724C364.71 190.027 361.378 194.768 358.369 197.299C355.092 200.055 354.506 202.861 355.746 206.515C358.147 213.592 360.45 220.713 363.133 227.679C366.182 235.592 366.031 243.06 361.676 250.462Z" fill="white"/>
<path d="M87.11 386.806L71.5165 426.65H55.1538L47.037 406.217C46.2958 404.368 45.4274 401.897 44.4311 398.803L43.6192 396.351H43.2346L42.3803 398.832L41.5686 401.284C40.9706 402.938 40.3296 404.592 39.6462 406.246L31.3151 426.65H15.1235L0 386.806H11.2786L19.695 408.669C20.2076 410.07 20.8485 412.006 21.617 414.478L22.5148 417.397L23.3692 420.316H23.7535C24.2086 419.032 24.5504 418.058 24.7788 417.397L25.8041 414.507C26.3451 412.989 27.0997 411.052 28.0682 408.698L37.0403 386.806H50.0271L58.7857 408.698C59.5258 410.566 60.2522 412.503 60.9641 414.507L61.9466 417.397L62.9722 420.316H63.314L64.2541 417.397L65.151 414.478C65.8913 412.123 66.5607 410.177 67.1591 408.64L75.7887 386.806H87.11Z" fill="white"/>
<path d="M96.7776 386.806V426.65H85.7124V386.806H96.7776Z" fill="white"/>
<path d="M136.57 412.433H147.677V413.806C147.677 419.352 146.196 422.938 143.234 424.562C140.272 426.188 133.721 427 123.582 427C112.075 427 104.998 425.715 102.349 423.146C99.7006 420.578 98.376 413.709 98.376 402.538C98.376 395.961 100.17 391.635 103.759 389.564C107.348 387.491 114.852 386.455 126.273 386.455C134.59 386.455 140.143 387.306 142.935 389.009C145.726 390.711 147.122 394.093 147.122 399.152L147.165 400.057H136.057V399.035C136.057 396.428 135.337 394.759 133.899 394.029C132.461 393.3 129.178 392.934 124.052 392.934C117.188 392.934 113.065 393.509 111.684 394.657C110.302 395.806 109.612 399.21 109.612 404.873C109.612 412.502 110.231 417.017 111.47 418.418C112.709 419.819 116.718 420.519 123.496 420.519C128.993 420.519 132.56 420.131 134.198 419.352C135.836 418.574 136.655 416.862 136.655 414.214L136.57 412.433Z" fill="white"/>
<path d="M159.147 386.806V403.035H164.359L183.755 386.806H197.512L173.972 406.158L199.989 426.65H185.805L164.445 409.398H159.147V426.65H148.082V386.806H159.147Z" fill="white"/>
<path d="M207.826 393.168V403.443H235.168V409.019H207.826V420.287H236.919V426.65H196.761V386.806H236.663V393.168H207.826Z" fill="white"/>
<path d="M238.6 426.65V386.806H267.266C275.411 386.806 281.114 388.022 284.377 390.454C287.637 392.887 289.268 397.149 289.268 403.239C289.268 413.184 287.958 419.571 285.338 422.402C282.717 425.235 276.807 426.65 267.607 426.65H238.6ZM249.665 420.287H265.429C270.727 420.287 274.151 419.455 275.704 417.791C277.256 416.127 278.032 412.454 278.032 406.772C278.032 400.894 277.333 397.158 275.939 395.563C274.542 393.967 271.267 393.168 266.112 393.168H249.665V420.287Z" fill="white"/>
<path d="M290.785 426.65V386.806H319.451C326.172 386.806 330.751 387.54 333.186 389.009C335.622 390.478 336.839 393.247 336.839 397.314C336.839 402.237 333.977 405.137 328.252 406.012V406.158C334.916 406.859 338.249 410.022 338.249 415.646C338.249 419.713 336.966 422.563 334.404 424.198C331.84 425.833 327.369 426.65 320.989 426.65H290.785ZM301.85 403.531H315.393C319.779 403.531 322.576 403.201 323.788 402.539C324.997 401.878 325.603 400.35 325.603 397.955C325.603 394.764 322.955 393.168 317.657 393.168H301.85V403.531ZM301.85 420.287H313.982L317.87 420.228C321.601 420.228 324.058 419.868 325.24 419.149C326.422 418.428 327.013 416.91 327.013 414.595C327.013 412.181 326.394 410.664 325.155 410.041C323.916 409.418 320.861 409.107 315.991 409.107H301.85V420.287Z" fill="white"/>
<path d="M363.937 386.455C374.532 386.455 381.354 387.657 384.402 390.059C387.449 392.463 388.972 397.838 388.972 406.188C388.972 415.314 387.441 421.065 384.38 423.438C381.318 425.813 373.906 427 362.143 427C351.548 427 344.697 425.828 341.594 423.483C338.489 421.138 336.937 415.976 336.937 407.996C336.937 398.5 338.461 392.536 341.508 390.103C344.556 387.671 352.032 386.455 363.937 386.455ZM363.083 392.934C355.649 392.934 351.305 393.587 350.053 394.89C348.799 396.195 348.173 400.71 348.173 408.434C348.173 414.156 348.906 417.6 350.373 418.768C351.84 419.936 356.162 420.519 363.34 420.519C370.203 420.519 374.319 419.863 375.686 418.549C377.053 417.236 377.737 413.251 377.737 406.595C377.737 399.921 377.088 395.975 375.793 394.759C374.496 393.543 370.26 392.934 363.083 392.934Z" fill="white"/>
<path d="M413.124 393.578V426.65H402.059V393.578H385.227V386.806H430.555V393.578H413.124Z" fill="white"/>
<path d="M472.614 386.806V393.14L440.402 420.053V420.287H472.999V426.65H426.389V420.199L458.346 393.402V393.168H427.799V386.806H472.614Z" fill="white"/>
</svg>
